<svg width="24" height="24" viewBox="0 0 24 24" fill="none" xmlns="http://www.w3.org/2000/svg">
<path d="M12 9.78125C10.9062 9.78125 10.0312 10.6836 10.0312 11.75C10.0312 12.8438 10.9062 13.7188 12 13.7188C13.0664 13.7188 13.9688 12.8438 13.9688 11.75C13.9688 10.6836 13.0664 9.78125 12 9.78125ZM10.0312 6.9375C10.0312 8.03125 10.9062 8.90625 12 8.90625C13.0664 8.90625 13.9688 8.03125 13.9688 6.9375C13.9688 5.87109 13.0664 4.96875 12 4.96875C10.9062 4.96875 10.0312 5.87109 10.0312 6.9375ZM10.0312 16.5625C10.0312 17.6562 10.9062 18.5312 12 18.5312C13.0664 18.5312 13.9688 17.6562 13.9688 16.5625C13.9688 15.4961 13.0664 14.5938 12 14.5938C10.9062 14.5938 10.0312 15.4961 10.0312 16.5625Z" fill="#758BA3"/>
</svg>
